<svg xmlns="http://www.w3.org/2000/svg" width="92" height="24" fill="none"><path fill="#fff" d="M29.459 23.344h-3.13V20.16h3.13v3.184Z"/><path fill="#fff" fill-rule="evenodd" d="M11.67 23.671c6.445 0 11.67-5.299 11.67-11.835C23.34 5.299 18.115 0 11.67 0S0 5.299 0 11.836C0 18.372 5.225 23.67 11.67 23.67Zm-.9-2.398c4.799 2.362 10.293-1.43 9.887-6.824l-.494-6.565c-.406-5.392-6.403-8.34-10.795-5.308L4.02 6.266C-.372 9.3.133 16.04 4.93 18.4l5.84 2.874Z" clip-rule="evenodd"/><path fill="#fff" d="M79.413 23.32c-1.248.032-1.952-.704-1.952-1.92V.44h2.624v20.64l11.36-.32V23l-12.032.32ZM53.672 11.704c0-6.56 3.904-11.584 10.56-11.584 6.592 0 10.496 5.024 10.496 11.584 0 6.592-3.904 11.616-10.496 11.616-6.656 0-10.56-5.024-10.56-11.616Zm2.624 0c0 5.408 2.592 9.376 7.936 9.376 5.312 0 7.872-3.968 7.872-9.376 0-5.376-2.56-9.344-7.872-9.344-5.344 0-7.936 3.968-7.936 9.344ZM52.256 17.304c0 3.36-2.016 6.016-8.672 6.016-7.872 0-10.208-3.488-10.208-8.768H36c0 5.344 2.848 6.528 7.584 6.528 3.84 0 6.048-.928 6.048-3.648 0-3.424-3.968-4.128-7.552-5.184-4.448-1.344-7.68-2.56-7.68-6.56 0-3.456 2.432-5.568 8-5.568 6.656 0 8.928 4.064 8.928 7.744h-2.624c0-3.84-2.848-5.504-6.304-5.504-3.104 0-5.376.768-5.376 3.264 0 2.368 1.984 3.232 5.696 4.384 4.416 1.376 9.536 2.592 9.536 7.296Z"/></svg>